<svg width="15" height="15" viewBox="0 0 15 15" fill="none" xmlns="http://www.w3.org/2000/svg">
<path d="M7.5 0.9C3.86056 0.9 0.9 3.86056 0.9 7.5C0.9 11.1394 3.86056 14.1 7.5 14.1C11.1394 14.1 14.1 11.1394 14.1 7.5C14.1 3.86056 11.1394 0.9 7.5 0.9ZM7.5 13.3583C4.27002 13.3583 1.64167 10.73 1.64167 7.5C1.64167 4.27002 4.27002 1.64167 7.5 1.64167C10.73 1.64167 13.3583 4.27002 13.3583 7.5C13.3583 10.73 10.73 13.3583 7.5 13.3583Z" fill="#203FC7" stroke="#203FC7" stroke-width="0.2"/>
<path d="M2.84018 7.32487L2.84012 7.325C2.78162 7.43459 2.78162 7.56579 2.84012 7.67538L2.84019 7.67552C3.7982 9.46374 5.58241 10.5791 7.5 10.5791C9.4176 10.5791 11.2018 9.46374 12.1598 7.67496L12.1599 7.67484C12.2184 7.56525 12.2184 7.43405 12.1599 7.32445L12.1598 7.32432C11.2018 5.53609 9.4176 4.42075 7.5 4.42075C5.5824 4.42075 3.7982 5.5361 2.84018 7.32487ZM7.5 9.83742C5.92416 9.83742 4.44248 8.94955 3.59153 7.49992C4.44248 6.05029 5.92416 5.16242 7.5 5.16242C9.07584 5.16242 10.5575 6.05029 11.4085 7.49992C10.5575 8.94954 9.07584 9.83742 7.5 9.83742Z" fill="#203FC7" stroke="#203FC7" stroke-width="0.2"/>
<path d="M6.99634 6.14023L6.80451 6.21101L6.97816 6.31897C7.11532 6.40425 7.20667 6.55457 7.20667 6.72588C7.20667 6.99125 6.9915 7.206 6.72654 7.206C6.55459 7.206 6.40492 7.11513 6.31971 6.97762L6.21209 6.80394L6.14096 6.99548C6.08291 7.15182 6.04587 7.3202 6.04587 7.49992C6.04587 8.30319 6.69677 8.95408 7.50004 8.95408C8.30331 8.95408 8.95421 8.30319 8.95421 7.49992C8.95421 6.69665 8.30331 6.04575 7.50004 6.04575C7.32035 6.04575 7.15202 6.08278 6.99634 6.14023Z" fill="#203FC7" stroke="#203FC7" stroke-width="0.2"/>
</svg>
